<?xml version="1.0" encoding="utf-8"?><svg version="1.1" id="Layer_1" xmlns="http://www.w3.org/2000/svg" xmlns:xlink="http://www.w3.org/1999/xlink" x="0px" y="0px" width="122.88px" height="122.88px" viewBox="0 0 122.88 122.88" enable-background="new 0 0 122.88 122.88" xml:space="preserve"><g><path fill-rule="evenodd" clip-rule="evenodd" d="M61.439,0c33.928,0,61.44,27.513,61.44,61.439c0,33.929-27.513,61.44-61.44,61.44 C27.512,122.88,0,95.368,0,61.439C0,27.513,27.512,0,61.439,0L61.439,0z M45.917,40.282l19.997,36.447 c1.326,1.263,2.336,2.896,2.846,4.796c1.475,5.502-1.791,11.159-7.293,12.634c-5.501,1.474-11.159-1.794-12.634-7.293 c-0.388-1.451-0.446-2.914-0.222-4.309L45.917,40.282L45.917,40.282z M112.652,64.89c0,4.503-3.653,8.156-8.154,8.156 c-4.504,0-8.158-3.653-8.158-8.156c0-4.502,3.654-8.155,8.158-8.155C108.999,56.734,112.652,60.388,112.652,64.89L112.652,64.89z M10.229,64.89c0,4.503,3.651,8.156,8.155,8.156c4.504,0,8.155-3.653,8.155-8.156c0-4.502-3.651-8.155-8.155-8.155 C13.881,56.734,10.229,60.388,10.229,64.89L10.229,64.89z M25.124,28.49c-3.184,3.184-3.184,8.35,0,11.534 c3.184,3.184,8.35,3.184,11.534,0c3.184-3.184,3.184-8.35,0-11.534C33.474,25.306,28.308,25.306,25.124,28.49L25.124,28.49z M61.485,13.285c4.504,0,8.154,3.651,8.154,8.155c0,4.501-3.65,8.155-8.154,8.155s-8.155-3.653-8.155-8.155 C53.331,16.936,56.981,13.282,61.485,13.285L61.485,13.285z M97.755,28.49c3.187,3.184,3.187,8.35,0.003,11.534 c-3.184,3.184-8.35,3.184-11.534,0c-3.186-3.184-3.186-8.35,0-11.534C89.408,25.306,94.574,25.306,97.755,28.49L97.755,28.49z"/></g></svg>