<svg fill="#000000" xmlns="http://www.w3.org/2000/svg"  viewBox="0 0 48 48" width="144px" height="144px"><path d="M35,10.795V5.5C35,3.019,32.981,1,30.5,1h-3c-1.711,0-3.3,0.994-4.047,2.533l-1.77,3.639C12.85,8.312,5.999,15.862,5.999,25	c0,3.354,0.942,6.482,2.549,9.17l-3.095,6.361c-0.683,1.402-0.597,3.031,0.232,4.356C6.516,46.211,7.941,47,9.5,47h2	c1.702,0,3.287-0.987,4.038-2.515l1.442-2.928C19.139,42.479,21.508,43,24,43c9.926,0,18.001-8.075,18.001-18	C42.001,19.221,39.249,14.088,35,10.795z M32,36.819c0,0.828-0.672,1.5-1.5,1.5h-3c-0.828,0-1.5-0.672-1.5-1.5v-1.537	c0.314,0.138,0.656,0.218,1,0.218c0.566,0,1.122-0.195,1.563-0.548L32,32.202V36.819z M32.313,29.39l-5.001,4.001	c-0.146,0.115-0.354,0.144-0.529,0.059C26.61,33.367,26.5,33.191,26.5,33v-2h-7.585l-6.07,12.162C12.594,43.675,12.071,44,11.5,44	h-2c-0.517,0-0.997-0.267-1.271-0.704c-0.274-0.438-0.304-0.987-0.077-1.452l18-37C26.402,4.327,26.926,4,27.5,4h3	C31.328,4,32,4.672,32,5.5v20.298l-3.437-2.748c-0.725-0.582-1.723-0.701-2.563-0.329v-5.741L20.937,27H26.5v-2	c0-0.191,0.11-0.367,0.287-0.452c0.17-0.082,0.374-0.06,0.525,0.063l5,4h0.001C32.432,28.705,32.5,28.848,32.5,29	S32.432,29.295,32.313,29.39z"/></svg>